<?xml version="1.0" standalone="no"?>
<!DOCTYPE svg PUBLIC "-//W3C//DTD SVG 20010904//EN"
 "http://www.w3.org/TR/2001/REC-SVG-20010904/DTD/svg10.dtd">
<svg version="1.0" xmlns="http://www.w3.org/2000/svg"
 width="770.000000pt" height="513.000000pt" viewBox="0 0 770.000000 513.000000"
 preserveAspectRatio="xMidYMid meet">

<g transform="translate(0.000000,513.000000) scale(0.100000,-0.100000)"
fill="#000000" stroke="none">
<path d="M0 2565 l0 -2565 3850 0 3850 0 0 2565 0 2565 -3850 0 -3850 0 0
-2565z m7561 2436 l29 -29 0 -611 0 -610 -24 -28 -24 -28 -1326 -3 -1325 -2
-33 29 -33 29 0 612 0 612 33 29 32 29 1321 0 1321 0 29 -29z m-6764 -135 c26
-18 44 -23 65 -19 22 4 28 2 28 -11 0 -18 -32 -35 -37 -20 -3 10 -140 11 -150
0 -7 -7 -53 -8 -53 -2 0 2 -3 12 -7 22 -5 15 -2 16 29 10 29 -5 38 -2 58 19
13 14 25 25 27 25 2 0 20 -11 40 -24z m-167 -51 c0 -13 -21 -25 -45 -25 -14 0
-15 17 -2 37 9 14 47 5 47 -12z m330 -11 c0 -19 -39 -18 -47 2 -3 9 0 20 8 24
15 10 39 -6 39 -26z m1320 -134 l0 -170 -65 0 -65 0 0 100 0 100 -205 0 -205
0 0 -165 0 -165 24 -6 c14 -3 92 -4 175 -2 l151 3 0 -67 0 -68 -172 -2 -173
-3 -3 -182 -2 -183 52 -1 c29 -1 61 -1 71 0 15 2 17 -7 17 -68 l0 -71 -215 0
-216 0 3 68 3 67 68 3 67 3 0 419 0 420 -70 0 -70 0 0 70 0 70 415 0 415 0 0
-170z m643 151 c46 -15 94 -60 137 -130 26 -42 34 -67 37 -119 3 -39 0 -80 -7
-97 -6 -16 -12 -32 -12 -35 -1 -11 -43 -67 -74 -97 l-32 -31 28 -12 c16 -7 49
-34 74 -60 73 -78 93 -182 59 -304 -23 -81 -92 -154 -178 -187 -56 -21 -77
-23 -343 -27 l-283 -4 3 68 3 69 68 3 67 3 0 419 0 420 -70 0 -70 0 0 71 0 71
278 -5 c173 -3 291 -9 315 -16z m737 -51 l0 -70 -60 0 -60 0 0 -420 0 -419 58
-3 57 -3 3 -67 3 -68 -196 0 -195 0 0 70 c0 38 3 69 8 69 4 -1 31 -1 60 0 l52
1 0 420 0 420 -60 0 -60 0 0 70 0 70 195 0 195 0 0 -70z m-3106 9 c-3 -5 -13
-9 -22 -9 -10 0 -23 -9 -30 -20 -7 -11 -19 -20 -26 -20 -8 0 -16 -3 -18 -7 -2
-5 -22 -26 -46 -48 -38 -36 -43 -38 -58 -23 -14 14 -13 17 14 29 24 10 31 21
36 51 6 38 6 38 55 38 42 0 49 3 60 27 12 27 13 27 27 9 7 -10 11 -23 8 -27z
m456 15 c12 -21 20 -25 50 -23 45 4 57 -4 65 -41 4 -17 19 -37 36 -48 27 -17
29 -20 14 -32 -15 -12 -19 -11 -33 6 -10 12 -35 34 -57 50 -22 16 -42 32 -45
35 -3 3 -19 13 -37 22 -24 13 -30 22 -26 37 7 27 17 25 33 -6z m-227 -170 c-4
-10 -10 -11 -25 -3 -16 8 -18 13 -8 19 18 11 40 1 33 -16z m-430 0 c3 -4 -1
-18 -10 -31 -15 -23 -18 -24 -29 -8 -7 9 -10 23 -7 31 5 14 34 19 46 8z m867
-24 c0 -34 -7 -38 -26 -12 -19 25 -17 42 6 42 16 0 20 -7 20 -30z m-593 -5 c0
-19 -24 -27 -30 -10 -6 15 1 25 18 25 6 0 12 -7 12 -15z m306 0 c1 -5 -6 -11
-15 -13 -11 -2 -18 3 -18 13 0 17 30 18 33 0z m-625 -53 c-3 -9 -9 -16 -16
-15 -6 2 -9 -4 -6 -11 3 -8 -2 -28 -10 -45 -9 -17 -16 -33 -16 -36 1 -3 -4
-29 -10 -59 -9 -46 -14 -53 -30 -49 -23 6 -24 12 -5 37 12 16 12 23 -1 54 -14
35 -14 36 21 72 23 23 35 45 35 63 0 25 2 27 21 17 11 -7 19 -19 17 -28z m982
-46 c31 -18 35 -37 21 -86 -5 -15 -3 -35 6 -52 8 -17 9 -29 3 -33 -16 -10 -31
5 -25 26 4 10 2 19 -3 19 -5 0 -13 16 -17 36 -3 20 -18 62 -31 93 -24 53 -24
56 -7 69 16 12 18 10 21 -21 2 -25 11 -38 32 -51z m-784 -4 c9 -5 9 -10 -1
-19 -13 -12 -29 -5 -32 15 -3 13 15 16 33 4z m233 -13 c-8 -5 -24 -9 -35 -9
-14 0 -24 -8 -28 -22 l-6 -23 -16 24 c-16 22 -16 25 -2 35 9 7 35 10 58 8 29
-3 38 -7 29 -13z m151 -1 c0 -15 -20 -48 -29 -48 -5 0 -11 9 -14 20 -3 13 -14
20 -30 20 -26 0 -45 16 -27 22 20 6 100 -4 100 -14z m170 7 c0 -8 -6 -15 -14
-15 -17 0 -28 14 -19 24 12 12 33 6 33 -9z m-243 -50 c-8 -20 13 -36 35 -24
14 7 18 6 18 -6 0 -12 -17 -15 -105 -15 -79 0 -105 3 -105 13 0 7 12 13 28 12
19 0 26 4 24 16 -2 13 8 16 54 17 41 0 54 -3 51 -13z m-374 -111 c-3 -8 -9
-14 -13 -14 -13 0 -22 19 -15 30 9 14 34 0 28 -16z m677 -6 c0 -21 -1 -21 -20
-3 -15 14 -17 21 -8 26 17 11 28 2 28 -23z m-880 -38 c0 -20 -5 -30 -15 -30
-21 0 -30 27 -15 45 19 23 30 18 30 -15z m1084 4 c6 -17 -9 -44 -25 -44 -5 0
-9 14 -9 30 0 33 23 42 34 14z m-1087 -81 c-3 -16 1 -32 9 -40 8 -8 14 -23 14
-33 0 -11 11 -45 25 -76 19 -43 22 -60 14 -70 -17 -21 -29 -17 -29 10 0 34
-10 56 -25 56 -21 0 -45 34 -35 50 14 23 11 73 -6 95 -16 21 -16 20 35 34 2 1
1 -11 -2 -26z m1084 -12 c-19 -27 -20 -32 -7 -68 14 -40 14 -40 -20 -67 -25
-20 -34 -35 -34 -56 0 -32 -1 -33 -24 -24 -17 6 -22 34 -7 34 5 0 11 10 14 23
3 12 12 42 21 67 8 25 17 62 21 83 5 31 10 37 31 37 l25 0 -20 -29z m-222 -37
c-14 -17 -18 -14 -24 15 -3 18 -1 20 16 10 16 -8 18 -13 8 -25z m-645 17 c3
-5 0 -14 -8 -20 -10 -9 -15 -8 -19 3 -9 22 15 37 27 17z m106 -10 c0 -6 -4
-13 -10 -16 -5 -3 -10 1 -10 9 0 9 5 16 10 16 6 0 10 -4 10 -9z m440 -6 c0 -8
-4 -15 -10 -15 -5 0 -10 7 -10 15 0 8 5 15 10 15 6 0 10 -7 10 -15z m-284 -32
c-10 -10 -19 5 -10 18 6 11 8 11 12 0 2 -7 1 -15 -2 -18z m124 7 c0 -5 -4 -10
-10 -10 -5 0 -10 5 -10 10 0 6 5 10 10 10 6 0 10 -4 10 -10z m-300 -114 c0 -7
-7 -13 -15 -13 -15 0 -20 18 -9 30 9 9 24 -2 24 -17z m480 8 c0 -9 -5 -14 -12
-12 -18 6 -21 28 -4 28 9 0 16 -7 16 -16z m-670 -90 c0 -17 -26 -24 -39 -11
-14 14 -14 30 1 45 10 10 15 9 25 -5 7 -9 13 -22 13 -29z m869 -11 c-13 -15
-35 -17 -43 -5 -3 5 2 19 11 32 15 22 17 22 29 5 10 -14 11 -22 3 -32z m-544
26 c10 -15 -1 -23 -20 -15 -9 3 -13 10 -10 16 8 13 22 13 30 -1z m208 -26 c-4
-10 -9 -11 -16 -4 -5 5 -7 18 -3 28 6 14 9 15 16 4 4 -8 6 -21 3 -28z m-502
-23 c1 -5 2 -16 3 -22 1 -7 9 -12 18 -10 10 1 23 -6 30 -18 7 -11 18 -20 24
-20 6 0 19 -9 29 -20 10 -11 22 -20 27 -20 13 0 38 -26 38 -39 0 -21 -22 -22
-36 -2 -11 15 -26 21 -54 21 -36 0 -39 2 -56 45 -9 25 -22 45 -28 45 -6 0 -17
4 -25 9 -12 8 -12 12 -2 25 15 18 30 21 32 6z m809 -19 c0 -4 -12 -11 -27 -17
-19 -6 -29 -20 -37 -49 -11 -38 -14 -40 -55 -43 -30 -2 -50 -10 -62 -25 -16
-19 -20 -20 -29 -7 -14 21 -12 30 5 30 16 0 20 3 115 83 47 39 69 52 78 44 6
-5 12 -13 12 -16z m-581 -130 c19 -12 6 -43 -16 -39 -21 4 -31 48 -11 48 7 0
19 -4 27 -9z m344 -4 c8 -21 -8 -39 -29 -35 -25 4 -30 35 -7 41 30 8 31 8 36
-6z m-63 -39 c0 -19 -25 -24 -49 -9 -9 6 -23 0 -45 -21 -17 -16 -32 -25 -34
-19 -2 6 -9 11 -16 11 -7 0 -21 9 -30 19 -14 16 -23 18 -43 10 -32 -12 -33
-12 -33 10 0 17 9 19 125 18 115 0 125 -2 125 -19z m3680 -928 l0 -290 -30 0
c-23 0 -30 4 -30 20 0 25 1 25 -57 -6 -83 -45 -164 -18 -209 68 -22 42 -28
138 -14 198 13 53 60 120 85 120 7 0 15 5 17 11 6 19 93 23 129 5 17 -9 36
-16 41 -16 4 0 8 41 8 90 l0 90 30 0 30 0 0 -290z m1740 110 c0 -99 3 -180 7
-180 12 0 73 63 73 75 0 7 26 37 58 67 49 47 63 55 86 51 28 -6 28 -6 -41 -76
-92 -95 -93 -96 -93 -112 0 -8 25 -43 55 -79 30 -35 55 -68 55 -73 0 -4 14
-19 30 -32 39 -30 38 -41 -2 -41 -33 0 -44 10 -171 162 -17 20 -18 20 -37 3
-17 -15 -20 -31 -20 -92 l0 -73 -30 0 -30 0 0 290 0 290 30 0 30 0 0 -180z
m-6064 47 c25 -54 59 -123 76 -154 l31 -55 63 128 c34 71 67 141 73 157 9 23
16 27 51 27 l40 0 0 -275 0 -275 -30 0 -30 0 0 230 c0 197 -2 229 -14 218 -8
-7 -12 -15 -11 -17 2 -2 -1 -8 -6 -15 -6 -6 -36 -67 -67 -135 -31 -68 -62
-126 -69 -128 -10 -4 -93 141 -99 172 -1 6 -18 39 -38 75 l-36 65 0 -232 0
-233 -30 0 -30 0 0 276 0 275 41 -3 41 -3 44 -98z m1847 -52 c21 -82 40 -157
42 -165 2 -8 4 -16 5 -17 2 -2 4 -7 5 -13 1 -5 3 -11 5 -12 1 -2 3 -10 5 -18
15 -68 21 -59 54 77 19 76 38 143 43 149 5 7 8 16 7 20 -1 5 0 16 3 24 4 8 12
36 18 63 13 49 37 62 64 34 7 -7 35 -103 62 -215 27 -112 53 -201 59 -199 5 2
31 89 57 193 26 104 50 199 53 212 4 17 13 22 36 22 23 0 30 -4 26 -14 -3 -8
-20 -72 -37 -142 -18 -71 -41 -160 -53 -199 -11 -38 -21 -74 -23 -80 -1 -5 -9
-34 -19 -62 -16 -48 -20 -53 -47 -53 -23 0 -29 4 -24 15 3 8 2 15 -2 15 -4 0
-8 8 -9 18 -4 45 -99 392 -108 392 -6 0 -35 -99 -64 -220 l-54 -220 -28 0
c-31 0 -26 -11 -65 148 -10 39 -22 72 -26 72 -4 0 -5 7 -2 15 4 8 1 22 -6 30
-7 8 -9 15 -6 15 4 0 4 6 -1 13 -4 6 -8 17 -10 22 -5 21 -53 201 -59 218 -5
16 -1 18 27 15 l33 -3 39 -150z m2897 45 l0 -110 145 0 145 0 0 110 0 110 30
0 30 0 0 -275 0 -275 -30 0 -30 0 0 140 0 141 -142 -3 -143 -3 -3 -137 -3
-138 -29 0 -30 0 0 275 0 275 30 0 30 0 0 -110z m-3430 40 c0 -41 4 -60 13
-61 6 -1 37 -2 67 -3 45 -1 55 -4 58 -20 6 -27 -15 -36 -80 -36 l-58 0 0 -127
c0 -71 3 -138 6 -150 8 -28 55 -47 99 -40 32 5 35 4 35 -18 0 -29 -31 -40 -92
-32 -40 5 -103 51 -92 68 2 4 0 10 -6 14 -6 4 -10 62 -10 144 0 130 -1 139
-20 144 -12 3 -20 14 -20 25 0 12 9 23 20 27 17 5 20 15 20 66 0 59 0 59 30
59 l30 0 0 -60z m2061 -2 c-2 -57 -2 -58 26 -60 15 -1 37 -1 48 0 44 3 65 -8
65 -33 0 -24 -2 -25 -70 -25 l-71 0 2 -135 c1 -128 2 -136 25 -161 21 -22 32
-25 69 -22 41 3 45 1 45 -19 0 -45 -113 -44 -159 1 -25 26 -26 30 -29 180 -4
152 -4 154 -27 160 -31 8 -29 44 2 52 21 6 23 12 23 66 0 59 0 59 27 56 26 -3
27 -5 24 -60z m-2681 -69 c44 -23 75 -60 85 -102 4 -15 10 -29 14 -31 13 -9
-7 -166 -26 -203 -27 -54 -91 -86 -159 -80 -75 8 -110 29 -136 85 -44 95 -31
236 28 295 58 58 127 71 194 36z m428 2 c2 -6 10 -11 18 -11 9 0 14 -11 14
-30 0 -35 1 -35 -53 -11 -79 36 -169 14 -175 -43 -5 -39 23 -59 113 -80 62
-15 80 -23 102 -50 38 -48 39 -95 2 -139 -37 -44 -91 -62 -170 -53 -89 9 -109
20 -109 59 l0 34 47 -23 c100 -51 218 -16 199 59 -7 30 -43 49 -129 67 -74 15
-108 45 -114 102 -4 37 -1 49 21 75 42 50 81 64 161 60 38 -3 71 -10 73 -16z
m1548 -3 c67 -33 74 -58 74 -247 l0 -161 -30 0 c-23 0 -30 4 -30 20 0 25 -1
25 -58 -5 -26 -14 -62 -25 -80 -25 -96 0 -148 95 -107 195 20 46 72 70 173 80
67 7 72 9 72 31 0 13 -13 38 -29 54 -24 25 -36 30 -78 30 -27 0 -53 -4 -58 -8
-6 -5 -22 -13 -37 -20 -27 -11 -28 -11 -28 22 0 29 4 35 33 44 57 18 136 14
183 -10z m477 -4 c21 -14 35 -29 32 -35 -4 -5 -1 -9 4 -9 6 0 10 -3 10 -7 -1
-5 0 -10 1 -13 1 -3 4 -80 6 -172 l4 -168 -29 0 -29 0 -4 161 c-3 155 -4 161
-27 180 -31 25 -84 24 -138 -2 l-43 -21 0 -159 0 -159 -30 0 -30 0 0 204 0
204 30 4 c27 4 30 2 30 -24 0 -15 5 -28 10 -28 6 0 10 5 10 10 0 6 12 16 28
23 15 6 33 17 40 24 23 22 84 15 125 -13z m703 -5 c40 -36 77 -126 69 -166
l-6 -33 -144 0 -145 0 0 -25 c0 -41 37 -102 71 -119 43 -21 98 -20 159 3 l50
19 0 -29 c0 -25 -5 -30 -52 -44 -72 -21 -125 -19 -184 9 -43 20 -55 32 -78 77
-42 84 -29 226 26 276 74 68 180 82 234 32z m1590 9 c67 -33 74 -58 74 -247
l0 -161 -31 0 c-26 0 -31 3 -26 20 7 26 -7 25 -44 0 -40 -29 -117 -37 -158
-16 -56 29 -76 108 -46 181 20 46 72 70 173 80 61 6 72 10 72 26 0 28 -22 69
-37 69 -7 0 -13 5 -13 10 0 6 -25 10 -55 10 -30 0 -55 -4 -55 -8 0 -5 -16 -13
-35 -19 l-35 -11 0 33 c0 32 3 34 43 43 72 17 127 13 173 -10z m422 4 c2 -7
12 -12 23 -12 15 0 19 -7 19 -35 l0 -36 -45 26 c-55 30 -83 31 -128 5 -45 -27
-62 -69 -62 -156 0 -83 22 -133 67 -153 38 -17 99 -9 138 19 l30 21 0 -34 c0
-31 -4 -36 -40 -51 -85 -34 -179 -8 -225 63 -34 50 -44 147 -25 217 14 50 63
114 86 114 8 0 14 4 14 9 0 15 30 20 89 17 30 -2 57 -8 59 -14z m791 -13 c44
-32 62 -70 68 -141 l6 -58 -152 0 -151 0 0 -27 c0 -38 33 -89 72 -113 57 -34
169 -19 204 28 12 15 13 12 14 -25 0 -37 -3 -42 -32 -52 -177 -62 -318 25
-318 196 0 86 59 193 106 193 8 0 14 4 14 9 0 30 125 23 169 -10z m221 -19 c4
-25 8 -31 14 -21 12 18 104 60 124 56 9 -2 23 -4 30 -4 8 -1 12 -13 10 -36 -1
-19 -2 -35 -3 -35 0 0 -15 4 -34 10 -28 8 -43 5 -87 -16 l-54 -25 -2 -122 c-1
-67 -1 -137 -1 -154 1 -30 -2 -33 -28 -33 l-29 0 0 209 0 208 28 -1 c23 -1 28
-6 32 -36z m-3540 -1020 c0 -103 -1 -110 -20 -110 -19 0 -20 7 -20 110 0 103
1 110 20 110 19 0 20 -7 20 -110z m1108 93 c4 -16 -22 -27 -43 -19 -22 8 -6
38 18 34 11 -2 22 -9 25 -15z m222 -18 c0 -33 1 -34 30 -29 48 10 60 -8 60
-87 0 -62 -2 -69 -20 -69 -17 0 -20 7 -20 53 0 55 -13 79 -36 70 -10 -4 -14
-23 -14 -64 0 -56 -1 -59 -25 -59 l-25 0 0 110 0 110 25 0 c22 0 25 -4 25 -35z
m700 -27 l0 -62 33 32 c43 41 67 42 33 1 -14 -17 -26 -35 -26 -41 0 -5 14 -28
31 -49 22 -28 26 -39 15 -39 -8 0 -27 16 -42 35 -30 39 -44 38 -44 -6 0 -19
-5 -29 -15 -29 -12 0 -15 19 -15 110 0 91 3 110 15 110 12 0 15 -14 15 -62z
m-3075 -25 l50 -77 3 77 c2 59 6 77 17 77 12 0 15 -20 15 -105 0 -82 -3 -105
-14 -105 -7 0 -38 37 -67 82 l-54 82 -3 -82 c-4 -120 -22 -101 -22 23 0 77 3
105 13 105 6 0 35 -35 62 -77z m965 -28 l0 -105 -25 0 -25 0 0 105 0 105 25 0
25 0 0 -105z m644 4 c20 -55 36 -102 36 -105 0 -2 -11 -4 -24 -4 -16 0 -27 7
-31 20 -5 16 -15 20 -46 20 -32 0 -39 -3 -39 -20 0 -15 -7 -20 -30 -20 l-29 0
35 97 c42 117 40 113 68 113 21 0 28 -12 60 -101z m1936 14 c0 -66 -4 -91 -17
-105 -31 -35 -113 -15 -113 28 0 21 18 17 30 -6 6 -12 21 -20 36 -20 32 0 44
32 44 121 0 39 4 69 10 69 6 0 10 -36 10 -87z m977 63 c24 -21 28 -31 28 -80
0 -72 -22 -97 -94 -104 l-51 -5 0 107 0 106 44 0 c33 0 52 -6 73 -24z m-4293
-42 c11 -11 16 -34 16 -78 l0 -62 -47 -2 c-52 -2 -73 10 -73 43 0 28 17 43 58
51 34 7 43 30 16 41 -8 3 -26 0 -40 -7 -30 -16 -41 -8 -19 14 21 20 69 21 89
0z m163 4 c10 -8 17 -8 25 0 16 16 61 15 76 0 15 -15 16 -148 2 -148 -6 0 -10
26 -10 58 0 60 -11 82 -42 82 -25 0 -38 -31 -38 -89 0 -28 -4 -51 -10 -51 -5
0 -10 26 -10 58 0 68 -9 85 -41 80 -22 -3 -24 -8 -27 -70 -2 -52 -6 -68 -17
-68 -12 0 -15 16 -15 78 l0 78 47 2 c25 1 52 -3 60 -10z m256 -1 c10 -6 19
-26 20 -42 2 -29 1 -30 -50 -33 -56 -3 -63 -10 -37 -36 18 -19 45 -21 62 -4
17 17 28 2 12 -17 -17 -20 -69 -19 -92 2 -23 20 -24 90 -2 121 17 25 60 29 87
9z m87 -8 c0 -5 -7 -9 -15 -9 -15 0 -20 12 -9 23 8 8 24 -1 24 -14z m393 -21
c12 -36 16 -40 22 -23 19 55 26 65 45 65 26 0 26 0 -10 -104 -34 -102 -44
-116 -76 -116 -27 0 -33 24 -9 34 21 8 19 34 -10 110 -14 37 -25 69 -25 71 0
3 11 5 24 5 20 0 27 -8 39 -42z m209 30 c10 -9 17 -36 21 -80 l5 -67 -57 0
c-62 0 -81 11 -81 44 0 28 17 43 58 51 33 7 40 18 21 30 -6 3 -16 1 -22 -5
-12 -12 -57 -15 -57 -4 0 3 7 15 17 25 19 21 72 24 95 6z m466 -74 c2 -69 0
-84 -18 -107 -16 -21 -30 -27 -59 -27 -43 0 -66 17 -50 37 8 9 16 10 31 2 14
-7 23 -7 34 2 23 19 17 25 -20 21 -26 -3 -37 1 -50 19 -20 30 -21 88 0 117 13
19 23 22 72 19 l57 -2 3 -81z m134 74 c10 -9 17 -36 21 -80 l5 -67 -57 0 c-62
0 -81 11 -81 44 0 28 17 43 58 51 33 7 40 18 21 30 -6 3 -16 1 -22 -5 -12 -12
-57 -15 -57 -4 0 3 7 15 17 25 19 21 72 24 95 6z m98 0 c0 -9 3 -9 12 0 18 18
38 15 38 -6 0 -9 -10 -22 -22 -27 -19 -8 -24 -19 -26 -62 -3 -49 -5 -53 -28
-53 -23 0 -24 2 -24 73 0 41 3 77 7 80 11 12 43 8 43 -5z m110 -68 c0 -73 -2
-80 -20 -80 -18 0 -20 7 -20 80 0 73 2 80 20 80 18 0 20 -7 20 -80z m141 70
c28 -15 24 -40 -6 -40 -14 0 -25 5 -25 10 0 6 -7 10 -15 10 -26 0 -16 -28 12
-35 38 -9 53 -23 53 -51 0 -41 -81 -61 -114 -28 -32 31 -7 47 34 22 15 -10 22
-10 31 -1 10 10 6 15 -17 23 -46 16 -59 26 -62 47 -6 43 59 69 109 43z m332
-7 c8 -10 19 -30 22 -45 7 -28 7 -28 -44 -28 -52 0 -62 -8 -37 -29 11 -10 20
-10 37 -1 17 10 23 9 30 -1 13 -21 -10 -39 -51 -39 -30 0 -43 6 -59 26 -43 54
-11 134 53 134 19 0 40 -8 49 -17z m90 -30 l14 -48 13 48 c10 39 16 47 36 47
29 0 29 0 1 -86 -20 -59 -27 -69 -49 -72 -23 -3 -28 2 -43 50 -9 29 -20 65
-25 81 -8 24 -7 27 15 27 20 0 26 -8 38 -47z m281 31 c11 -11 16 -34 16 -78
l0 -62 -47 -2 c-52 -2 -73 10 -73 43 0 28 17 43 58 51 34 7 43 30 16 41 -8 3
-26 0 -40 -7 -30 -16 -41 -8 -19 14 21 20 69 21 89 0z m310 0 c11 -11 16 -34
16 -78 l0 -62 -47 -2 c-52 -2 -73 10 -73 43 0 28 17 43 58 51 34 7 43 30 16
41 -8 3 -26 0 -40 -7 -30 -16 -41 -8 -19 14 21 20 69 21 89 0z m400 0 c11 -11
16 -34 16 -78 l0 -62 -47 -2 c-52 -2 -73 10 -73 43 0 28 17 43 58 51 34 7 43
30 16 41 -8 3 -26 0 -40 -7 -30 -16 -41 -8 -19 14 21 20 69 21 89 0z m163 4
c10 -8 17 -8 25 0 16 16 61 15 76 0 15 -15 16 -148 2 -148 -6 0 -10 26 -10 58
0 60 -11 82 -42 82 -25 0 -38 -31 -38 -89 0 -28 -4 -51 -10 -51 -5 0 -10 26
-10 58 0 68 -9 85 -41 80 -22 -3 -24 -8 -27 -70 -2 -52 -6 -68 -17 -68 -12 0
-15 16 -15 78 l0 78 47 2 c25 1 52 -3 60 -10z m256 -1 c10 -6 19 -26 20 -42 2
-29 1 -30 -50 -33 -56 -3 -63 -10 -37 -36 18 -19 45 -21 62 -4 17 17 28 2 12
-17 -17 -20 -69 -19 -92 2 -23 20 -24 90 -2 121 17 25 60 29 87 9z m167 -1 c0
-8 -18 -37 -40 -65 -22 -28 -40 -53 -40 -56 0 -3 20 -5 45 -5 25 0 45 -4 45
-10 0 -6 -28 -10 -65 -10 -36 0 -65 3 -65 8 0 4 21 34 46 67 l45 60 -40 3
c-61 5 -50 22 14 22 41 0 55 -4 55 -14z m413 1 c10 -6 19 -26 20 -42 2 -29 1
-30 -50 -33 -56 -3 -63 -10 -37 -36 18 -19 45 -21 62 -4 17 17 28 2 12 -17
-17 -20 -69 -19 -92 2 -23 20 -24 90 -2 121 17 25 60 29 87 9z m161 -3 c11
-11 16 -34 16 -78 l0 -62 -47 -2 c-52 -2 -73 10 -73 43 0 28 17 43 58 51 34 7
43 30 16 41 -8 3 -26 0 -40 -7 -30 -16 -41 -8 -19 14 21 20 69 21 89 0z m163
4 c16 -13 18 -148 3 -148 -5 0 -10 26 -10 58 0 68 -9 85 -41 80 -22 -3 -24 -8
-27 -70 -2 -52 -6 -68 -17 -68 -12 0 -15 16 -15 78 l0 77 47 2 c26 1 53 -3 60
-9z m-4287 -139 c0 -5 -7 -9 -15 -9 -15 0 -20 12 -9 23 8 8 24 -1 24 -14z
m-2160 -31 c13 -15 18 -16 29 -6 8 7 12 9 9 3 -3 -5 4 -19 15 -30 11 -11 17
-14 13 -7 -4 6 -2 12 3 12 6 0 11 -7 11 -16 0 -10 6 -14 14 -11 11 4 13 1 9
-11 -6 -14 -4 -15 9 -4 10 8 18 9 22 3 4 -6 14 -7 23 -4 11 4 14 3 9 -5 -8
-13 20 -12 41 1 9 5 11 3 7 -6 -3 -8 0 -18 5 -22 6 -3 9 -11 6 -16 -4 -5 -1
-9 5 -9 6 0 9 -4 5 -10 -3 -5 -11 -8 -18 -6 -7 1 -9 1 -5 -1 4 -3 10 -3 13 -1
9 6 36 -42 30 -52 -3 -6 -2 -10 4 -10 6 0 7 -8 4 -17 -6 -15 -4 -16 8 -6 12
10 14 7 13 -20 -1 -18 -3 -33 -4 -34 -3 -3 -7 -17 -9 -31 0 -4 -11 -9 -23 -9
-16 -2 -19 0 -9 6 9 6 10 11 3 15 -6 4 -19 -5 -28 -19 -9 -14 -21 -25 -28 -25
-6 0 -4 5 4 10 8 5 10 10 4 10 -5 0 -19 -6 -30 -14 -10 -8 -29 -12 -42 -9 -18
4 -21 2 -15 -13 6 -17 5 -17 -10 -5 -15 12 -22 12 -42 1 -22 -12 -27 -11 -40
6 -8 10 -15 14 -15 8 0 -11 -101 -11 -119 0 -5 4 -12 2 -16 -4 -3 -5 -18 -8
-33 -4 -70 14 -77 15 -62 4 12 -7 8 -10 -16 -10 -40 0 -79 -20 -79 -40 0 -8
-5 -14 -10 -13 -6 1 -10 -9 -10 -22 0 -13 3 -21 7 -19 4 2 9 0 12 -4 8 -13
-71 -34 -95 -27 -16 6 -19 14 -17 52 1 25 8 52 17 60 12 13 12 16 0 25 -10 7
-8 8 8 3 12 -3 25 -1 29 6 4 8 3 9 -4 5 -7 -4 -12 -2 -12 5 0 6 8 9 20 6 13
-3 20 0 21 9 3 31 4 35 14 42 21 15 46 83 49 132 2 39 35 97 46 81 3 -7 20 3
42 23 33 31 55 43 83 47 6 1 19 7 29 15 24 17 76 7 96 -18z m1710 -211 c0 -32
2 -33 30 -29 46 7 70 -20 70 -78 0 -62 -20 -80 -83 -78 l-47 2 0 108 c0 89 3
108 15 108 10 0 15 -10 15 -33z m1520 -76 l0 -108 -55 -1 c-45 0 -58 3 -70 21
-20 28 -19 87 1 116 14 19 23 22 50 18 33 -6 34 -5 34 29 0 27 4 34 20 34 19
0 20 -7 20 -109z m240 0 l0 -108 -55 -1 c-45 0 -58 3 -70 21 -20 28 -19 87 1
116 14 19 23 22 50 18 33 -6 34 -5 34 29 0 27 4 34 20 34 19 0 20 -7 20 -109z
m550 -1 c0 -103 -1 -110 -20 -110 -19 0 -20 7 -20 110 0 103 1 110 20 110 19
0 20 -7 20 -110z m-2560 13 c0 -66 -4 -91 -17 -105 -31 -35 -113 -15 -113 28
0 21 18 17 30 -6 6 -12 21 -20 36 -20 32 0 44 32 44 121 0 39 4 69 10 69 6 0
10 -36 10 -87z m740 72 c0 -11 -12 -15 -45 -15 -43 0 -45 -1 -45 -30 0 -28 2
-30 40 -30 29 0 40 -4 40 -15 0 -11 -11 -15 -40 -15 l-40 0 0 -45 c0 -41 -2
-45 -25 -45 l-25 0 0 105 0 105 70 0 c56 0 70 -3 70 -15z m520 -11 c0 -9 8
-23 18 -30 16 -13 16 -15 0 -28 -23 -17 -25 -84 -3 -92 27 -11 17 -34 -15 -34
-35 0 -50 23 -50 77 0 22 -5 44 -10 49 -15 15 17 74 41 74 11 0 19 -7 19 -16z
m-1094 -45 c11 -13 19 -35 19 -59 0 -49 -27 -80 -70 -80 -43 0 -70 31 -70 80
0 49 27 80 70 80 20 0 39 -8 51 -21z m254 0 c0 -5 -7 -9 -15 -9 -15 0 -20 12
-9 23 8 8 24 -1 24 -14z m380 9 c0 -9 3 -9 12 0 18 18 38 15 38 -6 0 -9 -10
-22 -22 -27 -19 -8 -24 -19 -26 -62 -3 -49 -5 -53 -28 -53 -23 0 -24 2 -24 73
0 41 3 77 7 80 11 12 43 8 43 -5z m189 -14 c43 -55 11 -134 -55 -134 -47 0
-74 29 -74 80 0 51 27 80 74 80 25 0 40 -7 55 -26z m91 14 c0 -9 3 -9 12 0 7
7 21 12 33 12 35 0 45 -20 45 -92 0 -61 -2 -68 -20 -68 -18 0 -20 7 -20 59 0
58 -9 74 -37 64 -9 -3 -13 -25 -13 -64 0 -56 -1 -59 -25 -59 -24 0 -25 2 -25
73 0 41 3 77 7 80 11 12 43 8 43 -5z m343 -5 c8 -10 19 -30 22 -45 7 -28 7
-28 -44 -28 -52 0 -62 -8 -37 -29 11 -10 20 -10 37 -1 17 10 23 9 30 -1 13
-21 -10 -39 -51 -39 -30 0 -43 6 -59 26 -43 54 -11 134 53 134 19 0 40 -8 49
-17z m87 5 c0 -9 3 -9 12 0 7 7 21 12 33 12 35 0 45 -20 45 -92 0 -61 -2 -68
-20 -68 -18 0 -20 7 -20 59 0 58 -9 74 -37 64 -9 -3 -13 -25 -13 -64 0 -56 -1
-59 -25 -59 -24 0 -25 2 -25 73 0 41 3 77 7 80 11 12 43 8 43 -5z m653 -5 c8
-10 19 -30 22 -45 7 -28 7 -28 -44 -28 -52 0 -62 -8 -37 -29 11 -10 20 -10 37
-1 17 10 23 9 30 -1 13 -21 -10 -39 -51 -39 -30 0 -43 6 -59 26 -43 54 -11
134 53 134 19 0 40 -8 49 -17z m90 -30 l14 -48 13 48 c10 39 16 47 36 47 29 0
29 0 1 -86 -20 -59 -27 -69 -49 -72 -23 -3 -28 2 -43 50 -9 29 -20 65 -25 81
-8 24 -7 27 15 27 20 0 26 -8 38 -47z m220 30 c8 -10 19 -30 22 -45 7 -28 7
-28 -44 -28 -52 0 -62 -8 -37 -29 11 -10 20 -10 37 -1 17 10 23 9 30 -1 13
-21 -10 -39 -51 -39 -30 0 -43 6 -59 26 -43 54 -11 134 53 134 19 0 40 -8 49
-17z m246 -9 c43 -55 11 -134 -55 -134 -47 0 -74 29 -74 80 0 51 27 80 74 80
25 0 40 -7 55 -26z m176 3 c20 -28 19 -87 -1 -116 -14 -19 -23 -22 -50 -18
-33 6 -34 5 -34 -29 0 -27 -4 -34 -20 -34 -19 0 -20 7 -20 109 l0 108 55 1
c45 0 58 -3 70 -21z m158 6 c8 -10 19 -30 22 -45 7 -28 7 -28 -44 -28 -52 0
-62 -8 -37 -29 11 -10 20 -10 37 -1 17 10 23 9 30 -1 13 -21 -10 -39 -51 -39
-30 0 -43 6 -59 26 -43 54 -11 134 53 134 19 0 40 -8 49 -17z m87 5 c0 -9 3
-9 12 0 18 18 38 15 38 -6 0 -9 -10 -22 -22 -27 -19 -8 -24 -19 -26 -62 -3
-49 -5 -53 -28 -53 -23 0 -24 2 -24 73 0 41 3 77 7 80 11 12 43 8 43 -5z
m-2720 -139 c0 -5 -7 -9 -15 -9 -15 0 -20 12 -9 23 8 8 24 -1 24 -14z m-2145
-66 c-11 -7 -26 -13 -34 -12 -9 0 -4 5 12 11 15 5 24 14 21 20 -5 7 -2 8 6 3
10 -6 9 -11 -5 -22z m-268 -35 c31 -22 53 -62 40 -75 -4 -3 -20 6 -37 21 -17
14 -37 26 -43 26 -7 0 -18 4 -26 9 -12 8 -12 12 -2 25 18 21 29 20 68 -6z
m218 -22 c-18 -13 -18 -14 3 -20 23 -8 28 -21 12 -31 -5 -3 -10 -1 -10 4 0 6
-5 11 -11 11 -6 0 -9 -10 -7 -22 2 -17 9 -23 26 -22 13 0 21 -4 19 -10 -5 -12
71 -15 90 -3 6 4 21 3 34 -1 14 -5 37 -4 61 5 22 7 44 11 49 8 5 -4 12 0 15 9
10 26 31 27 26 0 -2 -13 -8 -24 -13 -24 -5 0 -6 -7 -3 -14 15 -39 -256 -70
-292 -35 -21 21 -31 124 -14 144 7 8 17 15 23 15 6 0 2 -6 -8 -14z m425 -45
c7 -14 6 -20 -4 -24 -20 -8 -15 -76 8 -110 18 -27 18 -27 -8 -53 -18 -19 -33
-25 -51 -22 -14 3 -25 2 -25 -2 0 -4 -16 -6 -35 -4 -24 1 -38 -3 -45 -14 -8
-14 -9 -11 -10 14 0 16 7 39 15 50 8 10 15 25 15 32 0 8 8 26 19 40 10 15 24
44 30 65 23 69 62 81 91 28z m-631 -21 c15 0 14 -11 -4 -34 -27 -35 -13 -116
19 -116 8 0 19 17 25 38 l11 37 -5 -43 c-4 -31 -1 -44 9 -48 14 -5 16 -27 3
-40 -4 -4 1 -12 10 -19 18 -13 10 -35 -13 -35 -8 0 -15 10 -15 23 -1 16 -2 18
-6 5 -7 -26 -18 -22 -51 18 -29 35 -55 109 -66 189 -4 37 -4 37 10 -10 8 -27
19 -67 25 -87 9 -36 47 -83 57 -73 3 2 -4 12 -16 22 -12 10 -25 40 -31 71 -19
93 -11 153 15 118 6 -9 16 -16 23 -16z m116 15 c27 0 32 -5 47 -50 23 -69 42
-79 152 -79 l91 0 -50 -12 -50 -12 58 -1 c51 -1 57 -3 57 -22 0 -15 -5 -19
-16 -15 -9 3 -12 2 -8 -5 3 -6 -3 -19 -15 -30 -11 -11 -18 -26 -15 -34 4 -8 1
-22 -6 -30 -21 -26 13 -18 46 10 35 30 57 32 75 5 8 -11 25 -23 38 -25 27 -5
53 -25 33 -25 -22 0 -12 -17 17 -30 22 -9 34 -9 51 0 15 8 26 8 32 2 14 -14
-20 -23 -79 -21 -26 1 -68 -6 -92 -15 -25 -10 -55 -15 -67 -12 -14 4 -24 1
-28 -10 -3 -8 -10 -12 -16 -9 -5 3 -10 1 -10 -5 0 -7 -7 -9 -16 -6 -15 6 -15
4 -3 -10 12 -15 11 -16 -10 -9 -16 5 -21 4 -17 -4 10 -15 -17 -14 -34 2 -12
10 -12 9 -1 -6 8 -9 11 -21 7 -24 -4 -4 -10 -3 -14 3 -4 6 -19 10 -34 10 -16
-1 -28 4 -28 10 0 6 -8 18 -17 25 -11 10 -14 10 -9 2 4 -7 3 -13 -2 -13 -17 0
-30 24 -28 50 2 27 -10 50 -27 50 -6 0 -3 -6 6 -13 16 -11 16 -14 2 -32 -16
-20 -16 -19 -9 4 4 15 2 21 -4 17 -5 -3 -13 10 -17 30 -5 29 -2 41 15 59 14
15 18 25 11 30 -6 3 -9 11 -5 16 3 5 0 16 -6 24 -6 8 -9 19 -5 25 3 5 1 10 -4
10 -6 0 -10 5 -8 12 1 7 -5 12 -13 13 -12 0 -16 18 -18 85 -1 47 1 81 5 75 5
-5 22 -10 38 -10z m162 -27 c-3 -8 -6 -5 -6 6 -1 11 2 17 5 13 3 -3 4 -12 1
-19z m739 -46 c-17 -16 -18 -16 -5 5 7 12 15 20 18 17 3 -2 -3 -12 -13 -22z
m-253 1 c-7 -2 -19 -2 -25 0 -7 3 -2 5 12 5 14 0 19 -2 13 -5z m190 0 c-7 -2
-19 -2 -25 0 -7 3 -2 5 12 5 14 0 19 -2 13 -5z m-76 -10 c-20 -2 -52 -2 -70 0
-17 2 0 4 38 4 39 0 53 -2 32 -4z m1473 -38 c0 -33 1 -34 30 -29 48 10 60 -8
60 -87 0 -89 -18 -90 -22 -1 l-3 67 -30 0 -30 0 -3 -67 c-2 -52 -6 -68 -17
-68 -12 0 -15 20 -15 110 0 91 3 110 15 110 10 0 15 -11 15 -35z m340 -75 c0
-91 -3 -110 -15 -110 -12 0 -15 19 -15 110 0 91 3 110 15 110 12 0 15 -19 15
-110z m1448 93 c4 -16 -22 -27 -43 -19 -22 8 -6 38 18 34 11 -2 22 -9 25 -15z
m552 -40 l0 -57 29 28 c18 18 37 26 51 24 l23 -3 -27 -32 -27 -32 25 -38 c32
-47 32 -53 1 -53 -17 0 -29 9 -40 30 -18 34 -35 31 -35 -6 0 -17 -5 -24 -20
-24 -19 0 -20 7 -20 110 0 103 1 110 20 110 18 0 20 -7 20 -57z m698 40 c4
-16 -22 -27 -43 -19 -22 8 -6 38 18 34 11 -2 22 -9 25 -15z m242 -17 c0 -34 1
-35 34 -29 27 4 36 1 50 -18 20 -29 21 -88 1 -116 -12 -18 -25 -21 -70 -21
l-55 1 0 108 c0 102 1 109 20 109 16 0 20 -7 20 -34z m-3659 14 c20 -11 27
-64 9 -75 -7 -4 -5 -14 5 -28 36 -52 2 -97 -75 -97 l-50 0 0 105 0 105 46 0
c25 0 54 -5 65 -10z m99 0 c0 -5 -7 -10 -15 -10 -8 0 -15 5 -15 10 0 6 7 10
15 10 8 0 15 -4 15 -10z m1490 -10 c26 -26 26 -65 0 -87 -19 -17 -19 -17 6
-60 l25 -43 -28 0 c-22 0 -32 8 -48 37 -29 52 -45 54 -45 4 0 -37 -2 -41 -25
-41 l-25 0 0 105 0 105 60 0 c47 0 64 -4 80 -20z m1060 5 c0 -11 -12 -15 -45
-15 -41 0 -45 -2 -45 -24 0 -21 5 -25 37 -28 27 -2 39 -8 41 -20 3 -15 -4 -18
-37 -18 -37 0 -41 -2 -41 -25 0 -23 4 -25 45 -25 38 0 45 -3 45 -20 0 -18 -7
-20 -70 -20 l-70 0 0 105 0 105 70 0 c56 0 70 -3 70 -15z m400 -11 c0 -9 8
-23 18 -30 16 -13 16 -15 0 -28 -23 -17 -25 -84 -3 -92 27 -11 17 -34 -15 -34
-35 0 -50 23 -50 77 0 22 -5 44 -10 49 -15 15 17 74 41 74 11 0 19 -7 19 -16z
m-2760 -5 c0 -7 8 -18 18 -25 16 -13 16 -13 0 -14 -15 0 -18 -10 -18 -60 0
-47 3 -60 15 -60 8 0 15 -4 15 -10 0 -16 -47 -11 -54 6 -3 9 -6 40 -6 70 0 41
-4 54 -15 54 -8 0 -15 5 -15 10 0 6 7 10 15 10 8 0 15 7 15 15 0 8 7 15 15 15
8 0 15 -5 15 -11z m-1433 -34 c-6 -13 19 -36 28 -27 4 4 2 -3 -4 -16 -10 -19
-15 -21 -27 -12 -7 7 -11 17 -8 22 3 5 -1 17 -10 26 -14 16 -14 18 5 18 11 0
18 -5 16 -11z m29 -12 c-10 -10 -19 5 -10 18 6 11 8 11 12 0 2 -7 1 -15 -2
-18z m1214 -53 c0 -64 -3 -80 -15 -80 -12 0 -15 15 -15 73 0 41 3 77 7 80 17
18 23 0 23 -73z m120 70 c0 -5 -10 -10 -22 -12 -21 -3 -23 -9 -26 -70 -2 -52
-6 -68 -17 -68 -12 0 -15 16 -15 78 l0 78 40 1 c22 1 40 -2 40 -7z m412 -7
c12 -11 18 -30 18 -63 0 -58 -24 -85 -70 -78 -28 4 -30 3 -30 -29 0 -23 -5
-33 -15 -33 -12 0 -15 19 -15 108 l0 108 47 2 c32 1 53 -4 65 -15z m232 1 c11
-11 16 -34 16 -78 l0 -62 -47 -2 c-52 -2 -73 10 -73 43 0 28 17 43 58 51 34 7
43 30 16 41 -8 3 -26 0 -40 -7 -30 -16 -41 -8 -19 14 21 20 69 21 89 0z m168
-6 c15 -15 18 -23 9 -26 -7 -2 -18 4 -25 13 -18 26 -59 16 -70 -17 -21 -60 37
-119 70 -73 7 9 18 15 25 13 22 -7 -28 -48 -59 -48 -40 0 -63 29 -64 79 -1 74
65 108 114 59z m151 9 c10 -6 19 -26 20 -42 2 -29 1 -30 -50 -33 -56 -3 -63
-10 -37 -36 18 -19 45 -21 62 -4 17 17 28 2 12 -17 -17 -20 -69 -19 -92 2 -23
20 -24 90 -2 121 17 25 60 29 87 9z m87 -8 c0 -5 -7 -9 -15 -9 -15 0 -20 12
-9 23 8 8 24 -1 24 -14z m420 -38 c0 -39 4 -61 13 -64 28 -10 37 6 37 65 0 56
1 59 23 56 20 -3 22 -9 25 -80 l3 -77 -63 2 c-56 2 -64 5 -75 27 -13 26 -18
112 -6 123 3 4 15 7 25 7 15 0 18 -8 18 -59z m231 49 c28 -15 24 -40 -6 -40
-14 0 -25 5 -25 10 0 6 -7 10 -15 10 -26 0 -16 -28 12 -35 38 -9 53 -23 53
-51 0 -41 -81 -61 -114 -28 -32 31 -7 47 34 22 15 -10 22 -10 31 -1 10 10 6
15 -17 23 -46 16 -59 26 -62 47 -6 43 59 69 109 43z m150 0 c28 -15 24 -40 -6
-40 -14 0 -25 5 -25 10 0 6 -7 10 -15 10 -26 0 -16 -28 12 -35 38 -9 53 -23
53 -51 0 -41 -81 -61 -114 -28 -32 31 -7 47 34 22 15 -10 22 -10 31 -1 10 10
6 15 -17 23 -46 16 -59 26 -62 47 -6 43 59 69 109 43z m89 -70 c0 -73 -2 -80
-20 -80 -18 0 -20 7 -20 80 0 73 2 80 20 80 18 0 20 -7 20 -80z m142 68 c10
-9 17 -36 21 -80 l5 -67 -57 0 c-62 0 -81 11 -81 44 0 28 17 43 58 51 33 7 40
18 21 30 -6 3 -16 1 -22 -5 -12 -12 -57 -15 -57 -4 0 3 7 15 17 25 19 21 72
24 95 6z m640 0 c10 -9 17 -36 21 -80 l5 -67 -57 0 c-62 0 -81 11 -81 44 0 28
17 43 58 51 33 7 40 18 21 30 -6 3 -16 1 -22 -5 -12 -12 -57 -15 -57 -4 0 3 7
15 17 25 19 21 72 24 95 6z m271 -5 c8 -10 19 -30 22 -45 7 -28 7 -28 -44 -28
-52 0 -62 -8 -37 -29 11 -10 20 -10 37 -1 17 10 23 9 30 -1 13 -21 -10 -39
-51 -39 -30 0 -43 6 -59 26 -43 54 -11 134 53 134 19 0 40 -8 49 -17z m87 5
c0 -9 3 -9 12 0 18 18 38 15 38 -6 0 -9 -10 -22 -22 -27 -19 -8 -24 -19 -26
-62 -3 -49 -5 -53 -28 -53 -23 0 -24 2 -24 73 0 41 3 77 7 80 11 12 43 8 43
-5z m110 -68 c0 -73 -2 -80 -20 -80 -18 0 -20 7 -20 80 0 73 2 80 20 80 18 0
20 -7 20 -80z m80 68 c0 -9 3 -9 12 0 15 15 51 15 66 0 7 -7 12 -40 12 -80 0
-61 -2 -68 -20 -68 -18 0 -20 7 -20 59 0 58 -9 74 -37 64 -9 -3 -13 -25 -13
-64 0 -56 -1 -59 -25 -59 -24 0 -25 2 -25 73 0 41 3 77 7 80 11 12 43 8 43 -5z
m340 -47 c0 -39 4 -61 13 -64 28 -10 37 6 37 65 0 56 1 59 23 56 20 -3 22 -9
25 -80 l3 -77 -63 2 c-56 2 -64 5 -75 27 -13 26 -18 112 -6 123 3 4 15 7 25 7
15 0 18 -8 18 -59z m170 47 c0 -9 3 -9 12 0 18 18 38 15 38 -6 0 -9 -10 -22
-22 -27 -19 -8 -24 -19 -26 -62 -3 -49 -5 -53 -28 -53 -23 0 -24 2 -24 73 0
41 3 77 7 80 11 12 43 8 43 -5z m208 -74 c2 -69 0 -84 -18 -107 -16 -21 -30
-27 -59 -27 -43 0 -66 17 -50 37 8 9 16 10 31 2 14 -7 23 -7 34 2 23 19 17 25
-20 21 -26 -3 -37 1 -50 19 -20 30 -21 88 0 117 13 19 23 22 72 19 l57 -2 3
-81z m-5296 18 c4 -12 -1 -18 -13 -19 -16 -2 -17 1 -6 18 14 23 14 23 19 1z
m-768 -38 c5 -14 4 -15 -9 -4 -17 14 -19 20 -6 20 5 0 12 -7 15 -16z m4256
-40 c0 -33 -17 -64 -35 -64 -14 0 -13 32 1 78 7 23 34 13 34 -14z m-1130 -5
c0 -5 -7 -9 -15 -9 -15 0 -20 12 -9 23 8 8 24 -1 24 -14z m-3096 -135 c3 -8 2
-12 -4 -9 -6 3 -10 10 -10 16 0 14 7 11 14 -7z m461 -16 c5 4 5 1 0 -7 -10
-17 -66 -41 -91 -37 -10 2 -18 10 -18 19 1 9 -4 13 -12 10 -8 -3 -14 0 -14 5
0 13 88 20 111 10 9 -4 20 -4 24 0z m-405 -8 c0 -5 -5 -10 -11 -10 -5 0 -7 5
-4 10 3 6 8 10 11 10 2 0 4 -4 4 -10z m440 1 c0 -5 -7 -11 -14 -14 -10 -4 -13
-1 -9 9 6 15 23 19 23 5z m-203 -12 c4 11 7 11 13 0 5 -7 2 -22 -7 -36 -15
-22 -16 -22 -30 -6 -8 10 -12 12 -8 6 4 -9 1 -11 -9 -7 -15 6 -14 15 7 42 8
11 12 11 19 0 8 -11 11 -10 15 1z m33 -50 c0 -5 -4 -9 -8 -9 -5 0 -9 7 -9 15
0 8 4 12 9 9 4 -3 8 -9 8 -15z m1610 -141 l0 -62 33 32 c43 41 67 42 33 1 -14
-17 -26 -35 -26 -41 0 -5 14 -28 31 -49 22 -28 26 -39 15 -39 -8 0 -27 16 -42
35 -30 39 -44 38 -44 -6 0 -19 -5 -29 -15 -29 -12 0 -15 19 -15 110 0 91 3
110 15 110 12 0 15 -14 15 -62z m220 -48 c0 -91 -3 -110 -15 -110 -12 0 -15
19 -15 110 0 91 3 110 15 110 12 0 15 -19 15 -110z m70 0 c0 -91 -3 -110 -15
-110 -12 0 -15 19 -15 110 0 91 3 110 15 110 12 0 15 -19 15 -110z m1820 1 l0
-108 -55 -1 c-45 0 -58 3 -70 21 -20 28 -19 87 1 116 14 19 23 22 50 18 33 -6
34 -5 34 29 0 27 4 34 20 34 19 0 20 -7 20 -109z m1020 0 l0 -108 -55 -1 c-45
0 -58 3 -70 21 -20 28 -19 87 1 116 14 19 23 22 50 18 33 -6 34 -5 34 29 0 27
4 34 20 34 19 0 20 -7 20 -109z m338 92 c4 -16 -22 -27 -43 -19 -22 8 -6 38
18 34 11 -2 22 -9 25 -15z m-3554 -9 c17 -16 22 -44 8 -44 -4 0 -13 9 -20 20
-15 25 -70 28 -79 4 -9 -24 8 -46 46 -59 87 -29 83 -115 -5 -115 -30 0 -84 32
-84 51 0 17 25 9 38 -11 15 -24 64 -27 83 -4 18 22 2 44 -46 61 -21 7 -44 18
-51 24 -19 15 -18 54 2 73 20 21 88 21 108 0z m236 6 c0 -5 -7 -10 -15 -10 -8
0 -15 5 -15 10 0 6 7 10 15 10 8 0 15 -4 15 -10z m680 -10 c26 -26 26 -65 0
-87 -19 -17 -19 -17 6 -60 l25 -43 -28 0 c-22 0 -32 8 -48 37 -29 52 -45 54
-45 4 0 -37 -2 -41 -25 -41 l-25 0 0 105 0 105 60 0 c47 0 64 -4 80 -20z m930
0 c26 -26 26 -65 0 -87 -19 -17 -19 -17 6 -60 l25 -43 -28 0 c-22 0 -32 8 -48
37 -29 52 -45 54 -45 4 0 -37 -2 -41 -25 -41 l-25 0 0 105 0 105 60 0 c47 0
64 -4 80 -20z m944 -42 l35 -63 1 63 c0 59 1 62 25 62 l25 0 0 -105 c0 -103
-1 -105 -23 -105 -17 0 -31 15 -60 63 l-37 62 0 -62 c0 -60 -1 -63 -25 -63
l-25 0 0 105 c0 104 0 105 24 105 19 0 32 -13 60 -62z m-4186 29 c5 -27 -28
-59 -58 -55 -14 1 -31 -1 -38 -5 -22 -14 -34 3 -14 21 10 9 13 14 7 11 -5 -3
-16 -4 -22 -3 -7 1 -18 2 -24 3 -5 0 -7 6 -4 12 4 6 13 8 21 5 8 -3 17 1 20 9
4 8 10 12 15 9 5 -3 9 -1 9 5 0 5 19 9 42 8 33 -2 44 -6 46 -20z m2902 7 c0
-9 8 -23 18 -30 16 -13 16 -15 0 -28 -23 -17 -25 -84 -3 -92 27 -11 17 -34
-15 -34 -35 0 -50 23 -50 77 0 22 -5 44 -10 49 -15 15 17 74 41 74 11 0 19 -7
19 -16z m2510 0 c0 -9 8 -23 18 -30 16 -13 16 -15 0 -28 -23 -17 -25 -84 -3
-92 27 -11 17 -34 -15 -34 -35 0 -50 23 -50 77 0 22 -5 44 -10 49 -15 15 17
74 41 74 11 0 19 -7 19 -16z m-5386 -9 c3 -8 1 -15 -4 -15 -6 0 -10 7 -10 15
0 8 2 15 4 15 2 0 6 -7 10 -15z m30 -1 c3 -8 2 -12 -4 -9 -6 3 -10 10 -10 16
0 14 7 11 14 -7z m1576 -94 c0 -64 -3 -80 -15 -80 -12 0 -15 15 -15 73 0 41 3
77 7 80 17 18 23 0 23 -73z m285 64 c11 -12 13 -20 6 -27 -8 -8 -15 -6 -24 7
-16 22 -50 18 -55 -7 -3 -12 5 -19 27 -23 62 -13 80 -76 25 -90 -32 -8 -73 3
-81 22 -9 23 4 28 23 10 22 -22 59 -17 59 8 0 13 -10 22 -28 27 -55 15 -71 43
-41 73 20 21 68 20 89 0z m75 -5 c0 -5 -7 -9 -15 -9 -15 0 -20 12 -9 23 8 8
24 -1 24 -14z m493 4 c8 -10 19 -30 22 -45 7 -28 7 -28 -44 -28 -52 0 -62 -8
-37 -29 11 -10 20 -10 37 -1 17 10 23 9 30 -1 13 -21 -10 -39 -51 -39 -30 0
-43 6 -59 26 -43 54 -11 134 53 134 19 0 40 -8 49 -17z m149 5 c10 -9 17 -36
21 -80 l5 -67 -57 0 c-62 0 -81 11 -81 44 0 28 17 43 58 51 33 7 40 18 21 30
-6 3 -16 1 -22 -5 -12 -12 -57 -15 -57 -4 0 3 7 15 17 25 19 21 72 24 95 6z
m168 -8 c11 -11 20 -24 20 -30 0 -16 -42 -11 -55 7 -18 24 -35 7 -35 -37 0
-45 14 -58 39 -36 35 32 65 10 31 -24 -47 -47 -120 -11 -120 60 0 49 27 80 70
80 17 0 39 -9 50 -20z m613 3 c8 -10 19 -30 22 -45 7 -28 7 -28 -44 -28 -52 0
-62 -8 -37 -29 11 -10 20 -10 37 -1 17 10 23 9 30 -1 13 -21 -10 -39 -51 -39
-30 0 -43 6 -59 26 -43 54 -11 134 53 134 19 0 40 -8 49 -17z m257 -42 c0 -39
4 -61 13 -64 28 -10 37 6 37 65 0 56 1 59 23 56 20 -3 22 -9 25 -80 l3 -77
-63 2 c-56 2 -64 5 -75 27 -13 26 -18 112 -6 123 3 4 15 7 25 7 15 0 18 -8 18
-59z m176 37 l7 -22 17 22 c10 12 28 22 39 22 l21 0 -20 -41 -21 -40 20 -35
c26 -43 26 -44 0 -44 -11 0 -29 10 -39 22 l-17 22 -7 -22 c-5 -15 -15 -22 -32
-22 -29 0 -29 0 -7 45 16 33 16 37 0 70 -22 45 -22 45 7 45 17 0 27 -7 32 -22z
m583 -4 c43 -55 11 -134 -55 -134 -47 0 -74 29 -74 80 0 51 27 80 74 80 25 0
40 -7 55 -26z m334 9 c8 -10 19 -30 22 -45 7 -28 7 -28 -44 -28 -52 0 -62 -8
-37 -29 11 -10 20 -10 37 -1 17 10 23 9 30 -1 13 -21 -10 -39 -51 -39 -30 0
-43 6 -59 26 -43 54 -11 134 53 134 19 0 40 -8 49 -17z m185 -68 c3 -98 -10
-129 -56 -133 -36 -4 -46 22 -12 31 18 5 20 14 20 97 0 89 1 91 23 88 20 -3
22 -9 25 -83z m133 75 c28 -15 24 -40 -6 -40 -14 0 -25 5 -25 10 0 6 -7 10
-15 10 -26 0 -16 -28 12 -35 38 -9 53 -23 53 -51 0 -41 -81 -61 -114 -28 -32
31 -7 47 34 22 15 -10 22 -10 31 -1 10 10 6 15 -17 23 -46 16 -59 26 -62 47
-6 43 59 69 109 43z m232 -7 c8 -10 19 -30 22 -45 7 -28 7 -28 -44 -28 -52 0
-62 -8 -37 -29 11 -10 20 -10 37 -1 17 10 23 9 30 -1 13 -21 -10 -39 -51 -39
-30 0 -43 6 -59 26 -43 54 -11 134 53 134 19 0 40 -8 49 -17z m257 -3 c11 -11
20 -24 20 -30 0 -16 -42 -11 -55 7 -18 24 -35 7 -35 -37 0 -45 14 -58 39 -36
35 32 65 10 31 -24 -47 -47 -120 -11 -120 60 0 49 27 80 70 80 17 0 39 -9 50
-20z m-2580 -126 c0 -33 -17 -64 -35 -64 -14 0 -13 32 1 78 7 23 34 13 34 -14z
m1000 0 c0 -33 -17 -64 -35 -64 -14 0 -13 32 1 78 7 23 34 13 34 -14z m868 9
c-2 -10 -12 -18 -23 -18 -11 0 -21 8 -23 18 -3 13 3 17 23 17 20 0 26 -4 23
-17z m810 0 c-2 -10 -12 -18 -23 -18 -11 0 -21 8 -23 18 -3 13 3 17 23 17 20
0 26 -4 23 -17z m90 0 c-2 -10 -12 -18 -23 -18 -11 0 -21 8 -23 18 -3 13 3 17
23 17 20 0 26 -4 23 -17z m90 0 c-2 -10 -12 -18 -23 -18 -11 0 -21 8 -23 18
-3 13 3 17 23 17 20 0 26 -4 23 -17z m90 0 c-2 -10 -12 -18 -23 -18 -11 0 -21
8 -23 18 -3 13 3 17 23 17 20 0 26 -4 23 -17z m-3948 -14 c0 -5 -7 -9 -15 -9
-15 0 -20 12 -9 23 8 8 24 -1 24 -14z"/>
<path d="M5304 4761 c-5 -24 -12 -30 -43 -35 -46 -7 -70 -32 -78 -79 -4 -30
-1 -39 22 -59 14 -12 32 -23 38 -23 7 0 12 -16 12 -40 0 -39 -1 -40 -30 -37
-16 2 -36 9 -43 15 -15 12 -32 -6 -32 -35 0 -16 7 -20 62 -32 25 -6 26 -8 17
-38 -11 -41 5 -62 27 -34 8 11 14 30 14 42 0 17 8 23 34 28 48 9 84 41 92 82
7 40 -6 61 -54 81 -31 13 -32 16 -26 51 4 20 7 38 8 39 1 1 15 -4 30 -12 32
-17 50 -19 41 -6 -3 5 -1 12 5 16 20 12 9 24 -30 35 -37 10 -39 13 -33 40 4
24 2 30 -11 30 -10 0 -19 -11 -22 -29z m-18 -103 c-7 -37 -11 -42 -25 -33 -15
8 -14 38 1 53 21 21 31 13 24 -20z m38 -156 c-18 -27 -43 -28 -37 0 11 51 12
53 31 35 13 -13 14 -21 6 -35z"/>
<path d="M5590 4750 c-6 -11 -23 -23 -38 -26 -48 -12 -57 -44 -12 -44 17 0 30
-2 30 -4 0 -5 -27 -139 -35 -173 -4 -17 -13 -23 -34 -23 -26 0 -41 -15 -41
-41 0 -5 43 -9 95 -9 52 0 95 4 95 9 0 5 3 16 6 25 5 12 -1 16 -23 16 l-30 0
29 138 c15 75 28 140 28 145 0 17 -60 6 -70 -13z"/>
<path d="M5835 4760 c-59 -24 -105 -120 -105 -218 0 -37 6 -50 35 -79 33 -33
39 -35 86 -31 41 4 58 12 85 40 38 38 64 112 64 187 0 36 -6 49 -34 77 -27 27
-42 34 -72 33 -22 0 -48 -4 -59 -9z m75 -55 c17 -20 5 -137 -18 -185 -31 -63
-82 -48 -82 24 0 48 23 141 40 162 16 18 44 18 60 -1z"/>
<path d="M6135 4760 c-4 -6 -10 -8 -15 -5 -4 3 -24 -13 -43 -34 -56 -62 -74
-185 -36 -247 24 -39 52 -49 112 -39 73 12 127 105 127 221 0 38 -24 84 -55
106 -15 11 -83 9 -90 -2z m63 -52 c16 -16 15 -72 -3 -143 -18 -69 -30 -85 -59
-85 -32 0 -46 19 -46 65 0 112 63 208 108 163z"/>
<path d="M6555 4760 c-59 -24 -105 -120 -105 -218 0 -37 6 -50 35 -79 33 -33
39 -35 86 -31 41 4 58 12 85 40 38 38 64 112 64 187 0 36 -6 49 -34 77 -27 27
-42 34 -72 33 -22 0 -48 -4 -59 -9z m75 -55 c25 -31 -7 -197 -42 -219 -47 -29
-69 35 -48 134 20 91 56 125 90 85z"/>
<path d="M6855 4760 c-4 -6 -10 -8 -15 -5 -4 3 -24 -13 -43 -34 -56 -62 -74
-185 -36 -247 24 -39 52 -49 112 -39 73 12 127 105 127 221 0 38 -24 84 -55
106 -15 11 -83 9 -90 -2z m65 -55 c15 -18 8 -114 -11 -161 -7 -16 -12 -32 -11
-35 1 -3 -10 -12 -24 -20 -54 -28 -77 27 -54 128 19 85 67 128 100 88z"/>
<path d="M7135 4760 c-4 -6 -10 -8 -14 -6 -4 3 -22 -9 -39 -27 -34 -36 -62
-118 -62 -185 0 -37 6 -50 35 -79 33 -33 39 -35 86 -31 41 4 58 12 85 40 38
38 64 112 64 187 0 36 -6 49 -34 77 -27 27 -42 34 -74 34 -23 0 -44 -5 -47
-10z m65 -55 c17 -20 5 -137 -18 -185 -31 -63 -82 -48 -82 24 0 48 23 141 40
162 16 18 44 18 60 -1z"/>
<path d="M6285 4434 c-19 -42 -35 -78 -35 -80 0 -2 9 -4 19 -4 18 0 81 64 81
83 0 5 12 24 26 43 l26 34 -41 0 -40 0 -36 -76z"/>
<path d="M6871 4228 c-5 -13 -12 -38 -16 -55 -6 -28 -9 -31 -25 -23 -28 15
-62 12 -97 -10 -41 -24 -63 -68 -70 -135 -5 -48 -3 -56 20 -79 30 -30 62 -33
95 -10 20 14 22 14 22 0 0 -23 57 -21 69 2 5 9 14 42 20 72 5 30 19 97 31 149
11 52 20 98 20 103 0 4 -14 8 -30 8 -22 0 -33 -6 -39 -22z m-39 -158 c-6 -84
-39 -125 -87 -106 -31 11 -9 124 27 140 7 2 24 4 38 3 22 -2 25 -6 22 -37z"/>
<path d="M5336 4223 c-5 -19 -66 -312 -66 -319 0 -2 16 -4 35 -4 29 0 35 4 35
21 0 11 5 40 11 65 9 35 16 44 33 44 22 0 36 -17 72 -85 17 -34 26 -40 57 -43
20 -2 37 -1 37 3 0 3 -17 38 -37 76 -31 58 -35 72 -23 77 34 12 70 61 70 94
-1 38 -20 68 -44 68 -9 0 -16 5 -16 10 0 6 -33 10 -79 10 -67 0 -80 -3 -85
-17z m142 -55 c36 -36 -5 -88 -71 -88 -35 0 -38 2 -32 23 19 63 29 77 60 77
17 0 36 -5 43 -12z"/>
<path d="M5664 4150 c-43 -17 -83 -69 -90 -117 -13 -89 44 -138 150 -129 62 5
70 9 80 42 6 19 4 20 -53 10 -50 -8 -63 -7 -85 7 -14 10 -26 26 -26 37 0 18 7
20 89 20 72 0 90 3 95 16 13 34 5 67 -23 95 -24 23 -38 29 -73 28 -24 0 -52
-4 -64 -9z m70 -46 c9 -3 16 -15 16 -25 0 -16 -8 -19 -50 -19 -54 0 -59 4 -33
32 17 18 39 23 67 12z"/>
<path d="M5864 4083 c14 -178 16 -183 39 -183 24 0 59 48 98 135 l23 50 9 -93
c9 -92 10 -93 35 -90 21 3 35 22 88 123 35 66 63 124 64 128 0 5 -15 7 -32 5
-29 -3 -37 -10 -69 -72 l-36 -68 -7 32 c-3 18 -6 50 -6 71 0 36 -2 39 -28 39
-23 0 -32 -7 -47 -37 -10 -21 -19 -42 -19 -46 -1 -4 -6 -11 -12 -15 -6 -4 -14
-16 -19 -27 -7 -19 -8 -19 -15 5 -5 14 -8 46 -9 73 -1 46 -2 47 -32 47 l-31 0
6 -77z"/>
<path d="M6258 4153 c-10 -2 -18 -11 -18 -18 0 -7 -3 -21 -6 -29 -5 -14 -2
-15 21 -6 51 19 115 8 115 -21 0 -3 -28 -10 -61 -13 -49 -6 -68 -13 -90 -36
-69 -69 -3 -165 81 -120 13 7 21 7 25 0 3 -5 19 -10 35 -10 32 0 30 -6 55 118
18 86 13 115 -21 131 -24 11 -102 13 -136 4z m92 -145 c0 -51 -91 -79 -98 -31
-3 17 5 26 35 41 44 21 63 18 63 -10z"/>
<path d="M6511 4138 c-5 -13 -16 -61 -25 -108 -9 -47 -19 -95 -21 -107 -5 -20
-1 -23 29 -23 l34 0 16 71 c9 39 16 79 16 89 0 21 19 30 66 30 26 0 34 4 34
18 0 10 5 23 12 30 20 20 -21 26 -58 9 -29 -14 -34 -15 -34 -2 0 10 -10 15
-30 15 -22 0 -33 -6 -39 -22z"/>
<path d="M7008 4152 c-26 -11 -58 -58 -58 -85 0 -31 25 -52 76 -66 57 -15 64
-38 16 -47 -27 -5 -46 -2 -73 13 l-37 20 -6 -21 c-10 -38 -7 -44 30 -56 58
-19 133 -6 161 27 12 16 22 36 23 46 0 26 -30 67 -50 67 -30 0 -80 22 -80 35
0 27 64 34 109 10 28 -14 29 -14 36 12 3 14 1 31 -4 36 -13 13 -119 20 -143 9z"/>
<path d="M2622 4540 l3 -162 86 0 c47 -1 90 1 95 4 5 3 23 9 40 12 83 18 121
140 72 228 -33 58 -65 71 -191 76 l-108 5 3 -163z"/>
<path d="M2625 4229 c-3 -8 -4 -95 -3 -194 l3 -179 90 2 c132 3 190 17 228 56
34 34 57 94 57 147 0 44 -43 111 -92 143 -39 26 -53 29 -160 34 -96 4 -119 2
-123 -9z"/>
<path d="M4346 2850 c-47 -30 -61 -65 -61 -155 0 -61 4 -86 18 -106 36 -54
116 -62 177 -19 l30 21 0 123 0 122 -38 17 c-49 22 -89 21 -126 -3z"/>
<path d="M817 2853 c-40 -21 -58 -55 -64 -122 -7 -70 9 -144 38 -174 16 -17
32 -22 74 -22 60 0 89 19 111 72 32 74 7 207 -43 234 -13 7 -23 16 -23 21 0
13 -62 7 -93 -9z"/>
<path d="M2835 2703 c-11 -2 -30 -6 -43 -9 -36 -7 -62 -40 -62 -79 0 -68 64
-94 147 -60 48 20 53 29 53 98 l0 57 -37 -1 c-21 -1 -47 -3 -58 -6z"/>
<path d="M3935 2849 c-32 -20 -65 -72 -65 -101 0 -16 12 -18 114 -18 65 0 117
4 121 10 8 13 -10 77 -27 92 -45 42 -95 48 -143 17z"/>
<path d="M5605 2703 c-11 -2 -30 -6 -43 -9 -58 -12 -84 -92 -42 -134 26 -26
89 -26 140 0 l40 20 0 65 0 65 -37 -1 c-21 -1 -47 -3 -58 -6z"/>
<path d="M6737 2850 c-36 -22 -53 -46 -62 -87 l-7 -33 121 0 c115 0 121 1 121
20 0 91 -99 148 -173 100z"/>
<path d="M4072 1861 c-15 -43 -16 -41 8 -41 21 0 23 8 11 50 -7 25 -7 25 -19
-9z"/>
<path d="M6960 1845 l0 -85 30 0 c45 0 70 31 70 85 0 54 -25 85 -70 85 l-30 0
0 -85z"/>
<path d="M2702 1809 c-34 -13 -25 -44 13 -44 25 0 31 4 33 28 4 29 -6 33 -46
16z"/>
<path d="M3111 1861 c-13 -24 -5 -31 36 -31 34 0 43 16 21 38 -18 18 -46 15
-57 -7z"/>
<path d="M3810 1789 c0 -25 33 -22 38 4 2 12 -3 17 -17 17 -15 0 -21 -6 -21
-21z"/>
<path d="M4251 1857 c-26 -26 -5 -92 25 -80 9 3 14 20 14 43 0 40 -19 57 -39
37z"/>
<path d="M4410 1789 c0 -25 33 -22 38 4 2 12 -3 17 -17 17 -15 0 -21 -6 -21
-21z"/>
<path d="M5091 1857 c-18 -18 -13 -27 14 -27 15 0 25 6 25 14 0 19 -25 27 -39
13z"/>
<path d="M5462 1809 c-34 -13 -25 -44 13 -44 25 0 31 4 33 28 4 29 -6 33 -46
16z"/>
<path d="M5772 1809 c-34 -13 -25 -44 13 -44 25 0 31 4 33 28 4 29 -6 33 -46
16z"/>
<path d="M6172 1809 c-34 -13 -25 -44 13 -44 25 0 31 4 33 28 4 29 -6 33 -46
16z"/>
<path d="M6581 1861 c-13 -24 -5 -31 36 -31 34 0 43 16 21 38 -18 18 -46 15
-57 -7z"/>
<path d="M7161 1861 c-13 -24 -5 -31 36 -31 34 0 43 16 21 38 -18 18 -46 15
-57 -7z"/>
<path d="M7332 1809 c-34 -13 -25 -44 13 -44 25 0 31 4 33 28 4 29 -6 33 -46
16z"/>
<path d="M1260 1601 c0 -5 9 -11 21 -14 16 -4 18 -3 8 9 -13 16 -29 19 -29 5z"/>
<path d="M1310 1599 c0 -5 5 -7 10 -4 6 3 10 8 10 11 0 2 -4 4 -10 4 -5 0 -10
-5 -10 -11z"/>
<path d="M1363 1445 c0 -14 4 -28 10 -32 6 -4 7 -1 2 7 -4 7 -2 15 4 20 9 5 8
10 -2 19 -12 9 -14 7 -14 -14z"/>
<path d="M725 1349 c-4 -6 -5 -12 -2 -15 2 -3 7 2 10 11 7 17 1 20 -8 4z"/>
<path d="M730 1259 c0 -5 5 -7 10 -4 6 3 10 8 10 11 0 2 -4 4 -10 4 -5 0 -10
-5 -10 -11z"/>
<path d="M2824 1447 c-3 -8 -4 -34 -2 -58 3 -41 5 -44 33 -44 36 0 55 38 39
83 -11 31 -60 44 -70 19z"/>
<path d="M4263 1443 c-18 -6 -17 -79 1 -86 19 -8 36 12 36 44 0 29 -18 49 -37
42z"/>
<path d="M4503 1443 c-18 -6 -17 -79 1 -86 19 -8 36 12 36 44 0 29 -18 49 -37
42z"/>
<path d="M2651 1441 c-26 -48 -3 -105 39 -99 54 7 52 110 -2 116 -18 2 -30 -3
-37 -17z"/>
<path d="M3493 1443 c-18 -6 -17 -79 1 -86 19 -8 36 12 36 44 0 29 -18 49 -37
42z"/>
<path d="M3931 1437 c-18 -18 -13 -27 14 -27 15 0 25 6 25 14 0 19 -25 27 -39
13z"/>
<path d="M4671 1437 c-18 -18 -13 -27 14 -27 15 0 25 6 25 14 0 19 -25 27 -39
13z"/>
<path d="M4981 1437 c-18 -18 -13 -27 14 -27 15 0 25 6 25 14 0 19 -25 27 -39
13z"/>
<path d="M5223 1443 c-18 -6 -17 -79 1 -86 19 -8 36 12 36 44 0 29 -18 49 -37
42z"/>
<path d="M5391 1437 c-26 -26 -5 -92 25 -80 9 3 14 20 14 43 0 40 -19 57 -39
37z"/>
<path d="M5561 1437 c-18 -18 -13 -27 14 -27 15 0 25 6 25 14 0 19 -25 27 -39
13z"/>
<path d="M730 946 c0 -2 7 -7 16 -10 8 -3 12 -2 9 4 -6 10 -25 14 -25 6z"/>
<path d="M6231 967 c-26 -26 -5 -92 25 -80 9 3 14 20 14 43 0 40 -19 57 -39
37z"/>
<path d="M2470 1005 c0 -32 2 -35 29 -35 27 0 61 21 61 39 0 17 -26 31 -57 31
-31 0 -33 -2 -33 -35z"/>
<path d="M2470 911 c0 -40 1 -41 34 -41 39 0 59 19 54 52 -2 19 -10 23 -45 26
l-43 3 0 -40z"/>
<path d="M4060 990 c0 -23 5 -30 19 -30 24 0 45 25 37 45 -3 8 -17 15 -31 15
-21 0 -25 -5 -25 -30z"/>
<path d="M3114 976 c-3 -7 -4 -33 -2 -57 3 -41 5 -44 33 -44 25 0 31 5 39 33
13 45 -5 82 -39 82 -14 0 -28 -6 -31 -14z"/>
<path d="M3362 919 c-34 -13 -25 -44 13 -44 25 0 31 4 33 28 4 29 -6 33 -46
16z"/>
<path d="M3671 971 c-13 -24 -5 -31 36 -31 34 0 43 16 21 38 -18 18 -46 15
-57 -7z"/>
<path d="M4800 899 c0 -14 5 -19 17 -17 26 5 29 38 4 38 -15 0 -21 -6 -21 -21z"/>
<path d="M5440 899 c0 -14 5 -19 17 -17 26 5 29 38 4 38 -15 0 -21 -6 -21 -21z"/>
<path d="M5711 967 c-18 -18 -13 -27 14 -27 15 0 25 6 25 14 0 19 -25 27 -39
13z"/>
<path d="M6681 967 c-26 -26 -5 -92 25 -80 9 3 14 20 14 43 0 40 -19 57 -39
37z"/>
<path d="M4703 463 c-18 -6 -17 -79 1 -86 19 -8 36 12 36 44 0 29 -18 49 -37
42z"/>
<path d="M5723 463 c-18 -6 -17 -79 1 -86 19 -8 36 12 36 44 0 29 -18 49 -37
42z"/>
<path d="M3410 480 c0 -23 5 -30 19 -30 24 0 45 25 37 45 -3 8 -17 15 -31 15
-21 0 -25 -5 -25 -30z"/>
<path d="M4340 480 c0 -23 5 -30 19 -30 24 0 45 25 37 45 -3 8 -17 15 -31 15
-21 0 -25 -5 -25 -30z"/>
<path d="M3611 457 c-18 -18 -13 -27 14 -27 15 0 25 6 25 14 0 19 -25 27 -39
13z"/>
<path d="M3760 389 c0 -25 33 -22 38 4 2 12 -3 17 -17 17 -15 0 -21 -6 -21
-21z"/>
<path d="M4541 457 c-18 -18 -13 -27 14 -27 15 0 25 6 25 14 0 19 -25 27 -39
13z"/>
<path d="M5553 463 c-18 -6 -17 -79 1 -86 19 -8 36 12 36 44 0 29 -18 49 -37
42z"/>
<path d="M5891 457 c-18 -18 -13 -27 14 -27 15 0 25 6 25 14 0 19 -25 27 -39
13z"/>
<path d="M6441 457 c-18 -18 -13 -27 14 -27 15 0 25 6 25 14 0 19 -25 27 -39
13z"/>
</g>
</svg>
