<?xml version="1.0"?>
<svg xmlns="http://www.w3.org/2000/svg" viewBox="0 -121 512 512" width="512px" height="512px"><path d="m457.742188 95.480469c52.980468-71.726563 41.230468-73.070313 54.257812-95.480469h-101.527344s-7.214844 25.050781-9.417968 29.535156c-19.5 39.660156-63.238282 99.167969-89.691407 105.25-26.046875 5.992188-22.589843-55.5625-20.984375-82.226562 1.511719-24.714844 1.253906-33.363282.527344-37.632813-1.0625-6.238281-6.296875-10.789062-12.578125-11.582031-12.949219-1.640625-36.445313-3.960938-62.757813-2.742188l-23.539062.78125c9.28125 20.761719 15.550781 14.398438 18.96875 38.417969 3.859375 28.121094 2.339844 96.546875-25.355469 96.546875-44.398437 0-94.234375-133.34375-95.820312-136.347656h-89.824219l8.21875 20.566406c66.238281 165.820313 149.082031 242.621094 262.429688 249.007813l14.75.425781 1.054687-14.324219c1.59375-22.121093 12.691406-53.964843 32.375-53.964843 29.082031 0 37.484375 8.46875 56.664063 32.167968 18.441406 22.722656 31.148437 36.121094 60.90625 36.121094h75.601562l-10.78125-21.679688c-16.835938-33.800781-50.605469-62.777343-63.792969-79.585937-4.777343-6.328125-9.480469-16.332031-4.613281-28.433594 3.980469-10.539062 15.832031-32.519531 24.929688-44.820312zm0 0" fill="#f8d412"/></svg>
